<?xml version="1.0" encoding="utf-8"?>
<!-- Generator: Adobe Illustrator 18.0.0, SVG Export Plug-In . SVG Version: 6.00 Build 0)  -->
<!DOCTYPE svg PUBLIC "-//W3C//DTD SVG 1.1//EN" "http://www.w3.org/Graphics/SVG/1.1/DTD/svg11.dtd">
<svg version="1.1" id="Layer_1" xmlns="http://www.w3.org/2000/svg" xmlns:xlink="http://www.w3.org/1999/xlink" x="0px" y="0px"
	 viewBox="0 308.9 595.3 227" enable-background="new 0 308.9 595.3 227" xml:space="preserve">
<g>
	<rect x="61.5" y="326.3" fill="none" width="188" height="102"/>
	<g>
		<path fill="#FFFFFF" d="M114,371.1h30.5c5.5,0,10.1,0.8,13.7,2.3c3.6,1.5,6.4,3.4,8.5,5.7c2.1,2.3,3.5,4.9,4.3,7.8
			c0.8,2.9,1.2,5.7,1.2,8.4c0,2.8-0.5,5.4-1.5,8s-2.4,4.9-4.2,7c-1.8,2.1-4.1,3.8-6.7,5.3c-2.7,1.4-5.6,2.3-8.9,2.6l24.6,39.5h-14.7
			l-22-38.2h-13.1v38.2H114V371.1z M125.7,409.2h15.4c2.3,0,4.5-0.2,6.8-0.5c2.2-0.4,4.2-1,6-2c1.8-1,3.2-2.4,4.2-4.2
			c1.1-1.8,1.6-4.2,1.6-7.2c0-2.9-0.5-5.3-1.6-7.2c-1.1-1.8-2.5-3.2-4.2-4.2c-1.8-1-3.8-1.7-6-2c-2.2-0.4-4.5-0.6-6.8-0.6h-15.4
			C125.7,381.3,125.7,409.2,125.7,409.2z"/>
		<path fill="#FFFFFF" d="M176.4,458.1h-15.9l-0.1-0.3L138.5,420h-12.3v38.2h-12.7v-87.6h31c5.6,0,10.3,0.8,13.9,2.3
			c3.6,1.5,6.6,3.5,8.7,5.9c2.1,2.4,3.6,5.1,4.5,8c0.8,2.9,1.2,5.8,1.2,8.5c0,2.8-0.5,5.6-1.5,8.2s-2.4,5-4.3,7.1
			c-1.9,2.1-4.2,3.9-6.9,5.4c-2.5,1.3-5.3,2.2-8.3,2.6L176.4,458.1z M161.1,457.1h13.5l-24.5-39.4l0.8-0.1c3.2-0.3,6.1-1.2,8.7-2.6
			c2.6-1.4,4.8-3.1,6.6-5.1s3.2-4.3,4.1-6.8c1-2.5,1.4-5.1,1.4-7.8c0-2.6-0.4-5.4-1.2-8.2c-0.8-2.8-2.2-5.4-4.2-7.6
			c-2-2.3-4.8-4.1-8.3-5.6c-3.5-1.5-8-2.2-13.5-2.2h-30v85.6h10.7V419h13.9l0.1,0.3L161.1,457.1z M141.2,409.7h-15.9v-28.9h15.9
			c2.3,0,4.6,0.2,6.9,0.6c2.3,0.4,4.4,1.1,6.2,2.1s3.3,2.5,4.4,4.4s1.7,4.4,1.7,7.4s-0.6,5.5-1.7,7.4c-1.1,1.9-2.6,3.4-4.4,4.4
			c-1.8,1-3.9,1.7-6.2,2.1C145.8,409.5,143.5,409.7,141.2,409.7z M126.2,408.7h14.9c2.2,0,4.5-0.2,6.7-0.5c2.2-0.4,4.1-1,5.8-2
			c1.7-0.9,3-2.3,4-4c1-1.8,1.5-4.1,1.5-6.9s-0.5-5.2-1.5-6.9c-1-1.7-2.4-3.1-4-4c-1.7-0.9-3.7-1.6-5.8-2c-2.2-0.4-4.5-0.5-6.7-0.5
			h-14.9C126.2,381.9,126.2,408.7,126.2,408.7z"/>
	</g>
	<g>
		<path fill="#FFFFFF" d="M183.4,371.1H205c6.1,0,11.5,0.7,16.1,2.1c4.6,1.4,8.6,3.2,12,5.6c3.4,2.3,6.2,5,8.4,8
			c2.2,3,4,6.1,5.3,9.3c1.3,3.2,2.2,6.4,2.8,9.5c0.6,3.2,0.9,6.1,0.9,8.8c0,5.5-1,10.9-3.1,16.1c-2,5.2-5.1,9.8-9,13.8
			c-4,4-8.9,7.3-14.9,9.7c-5.9,2.4-12.7,3.7-20.5,3.7h-19.7L183.4,371.1L183.4,371.1z M195.2,446.6h6.2c5,0,9.7-0.7,14.1-2
			c4.4-1.3,8.3-3.4,11.7-6.1c3.3-2.7,6-6.1,7.9-10.1c2-4,2.9-8.7,2.9-14.1c0-2.8-0.4-6-1.3-9.7c-0.9-3.7-2.6-7.2-5.1-10.6
			c-2.5-3.3-5.9-6.2-10.3-8.5c-4.4-2.3-10.1-3.5-17.1-3.5h-9L195.2,446.6L195.2,446.6z"/>
		<path fill="#FFFFFF" d="M203.1,458.1h-20.2v-87.6H205c6.1,0,11.6,0.7,16.2,2.1c4.6,1.4,8.7,3.3,12.1,5.6c3.4,2.3,6.3,5.1,8.6,8.1
			s4.1,6.2,5.4,9.4c1.3,3.2,2.3,6.4,2.8,9.6c0.6,3.2,0.9,6.2,0.9,8.9c0,5.6-1,11-3.1,16.3c-2.1,5.2-5.1,9.9-9.2,14
			c-4,4.1-9.1,7.4-15,9.8C217.8,456.9,210.9,458.1,203.1,458.1z M183.9,457.1h19.2c7.6,0,14.5-1.2,20.3-3.6
			c5.8-2.4,10.8-5.6,14.7-9.6c3.9-4,6.9-8.6,8.9-13.7c2-5.1,3-10.4,3-15.9c0-2.6-0.3-5.6-0.8-8.7c-0.6-3.1-1.5-6.3-2.8-9.4
			c-1.3-3.1-3-6.2-5.3-9.2c-2.2-3-5-5.6-8.3-7.9c-3.3-2.3-7.3-4.1-11.8-5.5c-4.5-1.4-9.9-2.1-15.9-2.1H184L183.9,457.1L183.9,457.1z
			 M201.4,447.1h-6.7v-65.6h9.5c7.1,0,12.9,1.2,17.4,3.5c4.4,2.3,8,5.3,10.5,8.6c2.5,3.4,4.2,7,5.2,10.8c0.9,3.7,1.4,7,1.4,9.8
			c0,5.4-1,10.3-3,14.3c-2,4.1-4.7,7.5-8.1,10.3c-3.4,2.7-7.4,4.8-11.8,6.1C211.2,446.4,206.4,447.1,201.4,447.1z M195.7,446.1h5.7
			c4.9,0,9.6-0.7,14-2c4.4-1.3,8.2-3.3,11.5-6c3.3-2.6,5.9-6,7.8-9.9c1.9-3.9,2.9-8.6,2.9-13.9c0-2.7-0.4-6-1.3-9.6
			c-0.9-3.6-2.6-7.1-5-10.4c-2.4-3.3-5.9-6.1-10.2-8.4c-4.3-2.3-10-3.4-16.9-3.4h-8.5V446.1z"/>
	</g>
	<g>
		<path fill="#FFFFFF" d="M328.2,402.6h10.4v8.5h0.2c1.3-2.9,3.6-5.3,6.8-7.1c3.2-1.8,7-2.7,11.2-2.7c2.6,0,5.2,0.4,7.6,1.2
			c2.4,0.8,4.6,2.1,6.4,3.8c1.8,1.7,3.3,3.9,4.3,6.5c1.1,2.7,1.6,5.8,1.6,9.4v35.3h-10.4V425c0-2.5-0.3-4.7-1-6.5s-1.6-3.3-2.8-4.4
			c-1.2-1.1-2.5-1.9-4-2.4c-1.5-0.5-3.1-0.8-4.7-0.8c-2.2,0-4.2,0.3-6,1c-1.9,0.7-3.5,1.8-4.9,3.3c-1.4,1.5-2.5,3.4-3.2,5.7
			c-0.8,2.3-1.2,5.1-1.2,8.2v28.3h-10.4v-54.8H328.2z"/>
		<path fill="#FFFFFF" d="M377.4,458H366v-33c0-2.5-0.3-4.6-1-6.4c-0.7-1.7-1.6-3.2-2.7-4.2c-1.1-1.1-2.4-1.8-3.8-2.3
			c-1.4-0.5-3-0.7-4.5-0.7c-2.1,0-4.1,0.3-5.8,1c-1.8,0.7-3.3,1.7-4.7,3.2c-1.3,1.5-2.4,3.3-3.1,5.5c-0.8,2.3-1.1,5-1.1,8.1V458
			h-11.4v-55.9h11.4v7.3c1.4-2.4,3.5-4.4,6.3-5.9c3.3-1.8,7.2-2.8,11.5-2.8c2.7,0,5.3,0.4,7.7,1.2c2.5,0.8,4.7,2.1,6.6,3.9
			c1.9,1.7,3.4,4,4.5,6.7c1.1,2.7,1.7,6,1.7,9.6V458H377.4z M366.9,457h9.4v-34.8c0-3.5-0.5-6.7-1.6-9.2c-1-2.6-2.5-4.7-4.2-6.4
			c-1.8-1.6-3.8-2.9-6.2-3.7c-2.4-0.8-4.9-1.2-7.4-1.2c-4.1,0-7.8,0.9-11,2.7c-3.1,1.8-5.4,4.1-6.6,6.9l-0.1,0.3h-1.1v-8.5h-9.4V457
			h9.4v-27.8c0-3.2,0.4-6,1.2-8.4c0.8-2.4,1.9-4.4,3.3-5.9c1.4-1.6,3.1-2.7,5.1-3.4c1.9-0.7,4-1.1,6.2-1.1c1.7,0,3.3,0.3,4.8,0.8
			c1.6,0.5,3,1.4,4.2,2.5c1.2,1.2,2.2,2.7,2.9,4.6c0.7,1.9,1.1,4.1,1.1,6.7L366.9,457L366.9,457z"/>
	</g>
	<g>
		<path fill="#FFFFFF" d="M384.5,402.6H395v7.9h0.2c2-2.9,4.8-5.2,8.3-6.8c3.5-1.6,7.1-2.4,10.8-2.4c4.2,0,8.1,0.7,11.5,2.2
			c3.4,1.5,6.4,3.5,8.8,6.1c2.4,2.6,4.3,5.7,5.6,9.2c1.3,3.5,2,7.3,2,11.3c0,4.1-0.7,7.9-2,11.4c-1.3,3.5-3.2,6.6-5.6,9.1
			c-2.4,2.6-5.4,4.6-8.8,6.1c-3.4,1.5-7.3,2.2-11.5,2.2c-3.9,0-7.6-0.8-11.1-2.5c-3.5-1.7-6.1-3.9-8-6.8H395v40.5h-10.4v-87.5H384.5
			z M413,410.9c-2.8,0-5.3,0.5-7.5,1.4c-2.2,1-4.1,2.3-5.7,3.9c-1.5,1.7-2.7,3.7-3.6,6c-0.9,2.4-1.3,4.9-1.3,7.7
			c0,2.8,0.4,5.3,1.3,7.7c0.8,2.4,2,4.4,3.6,6c1.5,1.7,3.4,3,5.7,3.9c2.2,1,4.7,1.4,7.5,1.4s5.3-0.5,7.5-1.4c2.2-1,4.1-2.3,5.7-3.9
			c1.5-1.7,2.7-3.7,3.6-6c0.8-2.4,1.3-4.9,1.3-7.7c0-2.8-0.4-5.3-1.3-7.7s-2-4.4-3.6-6c-1.5-1.7-3.4-3-5.7-3.9
			C418.3,411.4,415.8,410.9,413,410.9z"/>
		<path fill="#FFFFFF" d="M395.5,490.6H384v-88.5h11.4v7.2c2-2.6,4.6-4.6,7.8-6.1c3.6-1.6,7.3-2.5,11-2.5c4.3,0,8.2,0.8,11.7,2.2
			c3.5,1.5,6.5,3.6,9,6.3c2.5,2.7,4.4,5.8,5.7,9.4c1.3,3.6,2,7.4,2,11.5c0,4.1-0.7,8-2,11.6c-1.3,3.6-3.3,6.7-5.7,9.3
			c-2.5,2.6-5.5,4.7-9,6.2c-3.5,1.5-7.4,2.2-11.7,2.2c-4,0-7.8-0.9-11.3-2.5c-3.1-1.5-5.7-3.5-7.5-6v39.7H395.5z M385,489.6h9.4
			v-40.5h1l0.1,0.2c1.8,2.8,4.4,5,7.8,6.6c3.4,1.6,7.1,2.4,10.9,2.4c4.2,0,8-0.7,11.3-2.2c3.4-1.4,6.3-3.4,8.6-6
			c2.4-2.5,4.2-5.5,5.5-9c1.3-3.4,1.9-7.2,1.9-11.2c0-3.9-0.7-7.7-1.9-11.1c-1.3-3.4-3.1-6.5-5.5-9c-2.4-2.6-5.3-4.6-8.6-6
			c-3.4-1.4-7.2-2.2-11.3-2.2c-3.6,0-7.2,0.8-10.6,2.4c-3.4,1.6-6.1,3.8-8.1,6.7l-0.1,0.2h-1V403H385V489.6z M413,449.6
			c-2.8,0-5.4-0.5-7.7-1.5c-2.3-1-4.3-2.4-5.8-4.1c-1.6-1.7-2.8-3.8-3.7-6.2c-0.9-2.4-1.3-5-1.3-7.9c0-2.8,0.4-5.5,1.3-7.9
			c0.9-2.4,2.1-4.5,3.7-6.2c1.6-1.7,3.5-3.1,5.8-4.1c2.3-1,4.9-1.5,7.7-1.5c2.8,0,5.4,0.5,7.7,1.5s4.3,2.4,5.8,4.1
			c1.6,1.7,2.8,3.8,3.7,6.2c0.9,2.4,1.3,5,1.3,7.9c0,2.8-0.4,5.5-1.3,7.9c-0.9,2.4-2.1,4.5-3.7,6.2s-3.5,3.1-5.8,4.1
			C418.5,449.1,415.9,449.6,413,449.6z M413,411.4c-2.7,0-5.2,0.5-7.3,1.4c-2.2,0.9-4,2.2-5.5,3.8c-1.5,1.6-2.7,3.6-3.5,5.9
			c-0.8,2.3-1.2,4.8-1.2,7.5s0.4,5.2,1.2,7.5c0.8,2.3,2,4.3,3.5,5.9c1.5,1.6,3.3,2.9,5.5,3.8c2.2,0.9,4.6,1.4,7.3,1.4
			c2.7,0,5.2-0.5,7.3-1.4c2.2-0.9,4-2.2,5.5-3.8c1.5-1.6,2.7-3.6,3.5-5.9c0.8-2.3,1.2-4.8,1.2-7.5s-0.4-5.2-1.2-7.5
			c-0.8-2.3-2-4.2-3.5-5.9c-1.5-1.6-3.3-2.9-5.5-3.8C418.2,411.9,415.7,411.4,413,411.4z"/>
	</g>
	<g>
		<path fill="#FFFFFF" d="M497.5,457.5h-10.4V449h-0.2c-1.3,2.9-3.6,5.3-6.8,7.1c-3.2,1.8-7,2.7-11.2,2.7c-2.7,0-5.2-0.4-7.6-1.2
			c-2.4-0.8-4.5-2.1-6.3-3.8c-1.8-1.7-3.3-3.9-4.3-6.5c-1.1-2.7-1.6-5.8-1.6-9.4v-35.3h10.4V435c0,2.5,0.3,4.7,1,6.5
			c0.7,1.8,1.6,3.3,2.8,4.4c1.2,1.1,2.5,1.9,4,2.4c1.5,0.5,3.1,0.8,4.7,0.8c2.2,0,4.2-0.3,6-1c1.9-0.7,3.5-1.8,4.9-3.3
			c1.4-1.5,2.5-3.4,3.2-5.7c0.8-2.3,1.2-5.1,1.2-8.2v-28.3h10.4v54.9H497.5z"/>
		<path fill="#FFFFFF" d="M468.8,459.4c-2.7,0-5.4-0.4-7.8-1.2c-2.5-0.8-4.6-2.1-6.5-3.9c-1.9-1.7-3.4-4-4.5-6.7s-1.7-5.9-1.7-9.6
			v-35.8h11.4V435c0,2.5,0.3,4.6,1,6.4c0.7,1.7,1.6,3.2,2.7,4.2c1.1,1.1,2.4,1.8,3.8,2.3c1.4,0.5,3,0.7,4.5,0.7c2.1,0,4.1-0.3,5.8-1
			c1.8-0.7,3.3-1.7,4.7-3.2c1.3-1.4,2.4-3.3,3.1-5.6c0.8-2.3,1.1-5,1.1-8.1v-28.8H498V458h-11.4v-7.3c-1.4,2.4-3.5,4.4-6.3,5.9
			C477,458.4,473.1,459.4,468.8,459.4z M449.4,403.1v34.8c0,3.5,0.5,6.7,1.6,9.2c1,2.6,2.5,4.7,4.2,6.4c1.8,1.6,3.8,2.9,6.1,3.7
			c2.3,0.8,4.8,1.2,7.5,1.2c4.1,0,7.8-0.9,11-2.7c3.1-1.8,5.4-4.1,6.6-6.9l0.1-0.3h1.1v8.5h9.4v-53.9h-9.4v27.8c0,3.2-0.4,6-1.2,8.4
			c-0.8,2.4-1.9,4.4-3.3,5.9c-1.4,1.6-3.1,2.7-5.1,3.4c-1.9,0.7-4,1.1-6.2,1.1c-1.7,0-3.3-0.3-4.8-0.8c-1.6-0.5-3-1.4-4.2-2.5
			c-1.2-1.2-2.2-2.7-2.9-4.6c-0.7-1.9-1.1-4.1-1.1-6.7v-31.9L449.4,403.1L449.4,403.1z"/>
	</g>
	<g>
		<path fill="#FFFFFF" d="M539.2,411.6h-14.9v24.9c0,1.5,0,3.1,0.1,4.6c0.1,1.5,0.4,2.9,0.9,4.1c0.5,1.2,1.3,2.2,2.3,2.9
			c1,0.7,2.6,1.1,4.6,1.1c1.2,0,2.5-0.1,3.8-0.3c1.3-0.2,2.5-0.7,3.6-1.3v9.5c-1.2,0.7-2.8,1.2-4.8,1.4c-2,0.3-3.5,0.4-4.6,0.4
			c-4,0-7.1-0.6-9.3-1.7s-3.8-2.6-4.9-4.3c-1-1.8-1.7-3.8-1.9-6c-0.2-2.2-0.3-4.4-0.3-6.7v-28.6h-12v-9h12v-19.3h10.4v19.3h14.9v9
			H539.2z"/>
		<path fill="#FFFFFF" d="M530.2,459.4c-4.1,0-7.3-0.6-9.5-1.7c-2.3-1.2-4-2.7-5.1-4.5s-1.7-3.9-1.9-6.2c-0.2-2.2-0.3-4.5-0.3-6.7
			v-28.1h-12v-10h12v-19.3h11.4v19.3h14.9v10h-14.9v24.4c0,1.5,0,3.1,0.1,4.5c0.1,1.4,0.4,2.7,0.8,3.9c0.5,1.1,1.2,2,2.1,2.7
			c0.9,0.7,2.4,1,4.3,1c1.2,0,2.5-0.1,3.7-0.3c1.3-0.2,2.4-0.6,3.4-1.2l0.7-0.4v10.7l-0.3,0.1c-1.3,0.7-3,1.2-5,1.5
			C532.8,459.2,531.3,459.4,530.2,459.4z M502.3,411.1h12v29.1c0,2.2,0.1,4.4,0.3,6.6c0.2,2.1,0.8,4,1.8,5.8c1,1.7,2.6,3.1,4.7,4.1
			c2.1,1.1,5.2,1.6,9.1,1.6c1,0,2.6-0.1,4.5-0.4c1.8-0.2,3.2-0.7,4.4-1.3v-8.4c-0.9,0.4-1.9,0.8-3,0.9c-1.3,0.2-2.7,0.4-3.9,0.4
			c-2.1,0-3.7-0.4-4.9-1.2c-1.1-0.8-2-1.8-2.5-3.1c-0.5-1.2-0.8-2.7-0.9-4.2c-0.1-1.5-0.1-3-0.1-4.6V411h14.9v-8h-14.9v-19.3h-9.4
			V403h-12L502.3,411.1L502.3,411.1z"/>
	</g>
	<path fill="#FFFFFF" d="M291.3,521.8l-20.9-73.2l-6.3,22H113.5v-8H258l11.4-39.7c0.3-1,1.6-1,1.9,0l16.9,59.3l12.4-157.7
		c0.2-2.4,3.8-2.5,4,0l13.3,138.1h59.4v8h-66.7l-7.4-77l-10,128C293.2,522.7,291.6,522.9,291.3,521.8z"/>
	<rect x="402.2" y="462.6" fill="#FFFFFF" width="137.8" height="8"/>
</g>
</svg>
